<?xml version="1.0" encoding="UTF-8" standalone="no"?>
<!DOCTYPE svg PUBLIC "-//W3C//DTD SVG 1.1//EN"
 "http://www.w3.org/Graphics/SVG/1.1/DTD/svg11.dtd">
<!-- Generated by graphviz version 2.47.0 (20210316.0004)
 -->
<!-- Title: dependencies Pages: 1 -->
<svg width="1093pt" height="284pt"
 viewBox="0.00 0.00 1093.00 284.00" xmlns="http://www.w3.org/2000/svg" xmlns:xlink="http://www.w3.org/1999/xlink">
<g id="graph0" class="graph" transform="scale(1 1) rotate(0) translate(4 280)">
<title>dependencies</title>
<polygon fill="white" stroke="transparent" points="-4,4 -4,-280 1089,-280 1089,4 -4,4"/>
<text text-anchor="start" x="521.51" y="-42.4" font-family="sans-serif" font-weight="bold" font-size="14.00">Legend</text>
<polygon fill="#ffffb3" stroke="transparent" points="308.5,-10 308.5,-30 328.5,-30 328.5,-10 308.5,-10"/>
<text text-anchor="start" x="332.13" y="-15.4" font-family="sans-serif" font-size="14.00"> &#160;Declarations</text>
<polygon fill="#8dd3c7" stroke="transparent" points="421.5,-10 421.5,-30 441.5,-30 441.5,-10 421.5,-10"/>
<text text-anchor="start" x="445.23" y="-15.4" font-family="sans-serif" font-size="14.00"> &#160;Module</text>
<polygon fill="#80b1d3" stroke="transparent" points="507.5,-10 507.5,-30 527.5,-30 527.5,-10 507.5,-10"/>
<text text-anchor="start" x="531.28" y="-15.4" font-family="sans-serif" font-size="14.00"> &#160;Bootstrap</text>
<polygon fill="#fdb462" stroke="transparent" points="604.5,-10 604.5,-30 624.5,-30 624.5,-10 604.5,-10"/>
<text text-anchor="start" x="628.17" y="-15.4" font-family="sans-serif" font-size="14.00"> &#160;Providers</text>
<polygon fill="#fb8072" stroke="transparent" points="700.5,-10 700.5,-30 720.5,-30 720.5,-10 700.5,-10"/>
<text text-anchor="start" x="724.23" y="-15.4" font-family="sans-serif" font-size="14.00"> &#160;Exports</text>
<g id="clust1" class="cluster">
<title>cluster_AppModule</title>
<polygon fill="none" stroke="black" stroke-dasharray="1,5" points="8,-70 8,-268 1077,-268 1077,-70 8,-70"/>
</g>
<g id="clust9" class="cluster">
<title>cluster_AppModule_imports</title>
<polygon fill="none" stroke="black" points="925,-78 925,-130 1069,-130 1069,-78 925,-78"/>
</g>
<g id="clust11" class="cluster">
<title>cluster_AppModule_bootstrap</title>
<polygon fill="none" stroke="black" points="491,-208 491,-260 615,-260 615,-208 491,-208"/>
</g>
<g id="clust2" class="cluster">
<title>cluster_AppModule_declarations</title>
<polygon fill="none" stroke="black" points="16,-78 16,-130 917,-130 917,-78 16,-78"/>
</g>
<!-- AppComponent -->
<g id="node1" class="node">
<title>AppComponent</title>
<polygon fill="#ffffb3" stroke="black" points="908.94,-122 803.06,-122 803.06,-86 908.94,-86 908.94,-122"/>
<text text-anchor="middle" x="856" y="-99.8" font-family="Times,serif" font-size="14.00">AppComponent</text>
</g>
<!-- AppModule -->
<g id="node7" class="node">
<title>AppModule</title>
<polygon fill="#8dd3c7" stroke="black" points="594.66,-187 591.66,-191 570.66,-191 567.66,-187 511.34,-187 511.34,-151 594.66,-151 594.66,-187"/>
<text text-anchor="middle" x="553" y="-164.8" font-family="Times,serif" font-size="14.00">AppModule</text>
</g>
<!-- AppComponent&#45;&gt;AppModule -->
<g id="edge1" class="edge">
<title>AppComponent&#45;&gt;AppModule</title>
<path fill="none" stroke="black" d="M856,-122.11C856,-141.34 856,-169 856,-169 856,-169 604.81,-169 604.81,-169"/>
<polygon fill="black" stroke="black" points="604.81,-165.5 594.81,-169 604.81,-172.5 604.81,-165.5"/>
</g>
<!-- DashboardComponent -->
<g id="node2" class="node">
<title>DashboardComponent</title>
<polygon fill="#ffffb3" stroke="black" points="784.97,-122 643.03,-122 643.03,-86 784.97,-86 784.97,-122"/>
<text text-anchor="middle" x="714" y="-99.8" font-family="Times,serif" font-size="14.00">DashboardComponent</text>
</g>
<!-- DashboardComponent&#45;&gt;AppModule -->
<g id="edge2" class="edge">
<title>DashboardComponent&#45;&gt;AppModule</title>
<path fill="none" stroke="black" d="M714,-122.03C714,-138.4 714,-160 714,-160 714,-160 604.88,-160 604.88,-160"/>
<polygon fill="black" stroke="black" points="604.88,-156.5 594.88,-160 604.88,-163.5 604.88,-156.5"/>
</g>
<!-- HeroDetailComponent -->
<g id="node3" class="node">
<title>HeroDetailComponent</title>
<polygon fill="#ffffb3" stroke="black" points="624.52,-122 481.48,-122 481.48,-86 624.52,-86 624.52,-122"/>
<text text-anchor="middle" x="553" y="-99.8" font-family="Times,serif" font-size="14.00">HeroDetailComponent</text>
</g>
<!-- HeroDetailComponent&#45;&gt;AppModule -->
<g id="edge3" class="edge">
<title>HeroDetailComponent&#45;&gt;AppModule</title>
<path fill="none" stroke="black" d="M553,-122.11C553,-122.11 553,-140.99 553,-140.99"/>
<polygon fill="black" stroke="black" points="549.5,-140.99 553,-150.99 556.5,-140.99 549.5,-140.99"/>
</g>
<!-- HeroSearchComponent -->
<g id="node4" class="node">
<title>HeroSearchComponent</title>
<polygon fill="#ffffb3" stroke="black" points="463.9,-122 316.1,-122 316.1,-86 463.9,-86 463.9,-122"/>
<text text-anchor="middle" x="390" y="-99.8" font-family="Times,serif" font-size="14.00">HeroSearchComponent</text>
</g>
<!-- HeroSearchComponent&#45;&gt;AppModule -->
<g id="edge4" class="edge">
<title>HeroSearchComponent&#45;&gt;AppModule</title>
<path fill="none" stroke="black" d="M390,-122.03C390,-138.4 390,-160 390,-160 390,-160 501.02,-160 501.02,-160"/>
<polygon fill="black" stroke="black" points="501.02,-163.5 511.02,-160 501.02,-156.5 501.02,-163.5"/>
</g>
<!-- HeroesComponent -->
<g id="node5" class="node">
<title>HeroesComponent</title>
<polygon fill="#ffffb3" stroke="black" points="298.47,-122 177.53,-122 177.53,-86 298.47,-86 298.47,-122"/>
<text text-anchor="middle" x="238" y="-99.8" font-family="Times,serif" font-size="14.00">HeroesComponent</text>
</g>
<!-- HeroesComponent&#45;&gt;AppModule -->
<g id="edge5" class="edge">
<title>HeroesComponent&#45;&gt;AppModule</title>
<path fill="none" stroke="black" d="M238,-122.11C238,-141.34 238,-169 238,-169 238,-169 501.17,-169 501.17,-169"/>
<polygon fill="black" stroke="black" points="501.17,-172.5 511.17,-169 501.17,-165.5 501.17,-172.5"/>
</g>
<!-- MessagesComponent -->
<g id="node6" class="node">
<title>MessagesComponent</title>
<polygon fill="#ffffb3" stroke="black" points="159.75,-122 24.25,-122 24.25,-86 159.75,-86 159.75,-122"/>
<text text-anchor="middle" x="92" y="-99.8" font-family="Times,serif" font-size="14.00">MessagesComponent</text>
</g>
<!-- MessagesComponent&#45;&gt;AppModule -->
<g id="edge6" class="edge">
<title>MessagesComponent&#45;&gt;AppModule</title>
<path fill="none" stroke="black" d="M92,-122.29C92,-144.21 92,-178 92,-178 92,-178 501.28,-178 501.28,-178"/>
<polygon fill="black" stroke="black" points="501.28,-181.5 511.28,-178 501.28,-174.5 501.28,-181.5"/>
</g>
<!-- AppComponent  -->
<g id="node9" class="node">
<title>AppComponent </title>
<polygon fill="#80b1d3" stroke="black" points="607.44,-252 498.56,-252 498.56,-216 607.44,-216 607.44,-252"/>
<text text-anchor="middle" x="553" y="-229.8" font-family="Times,serif" font-size="14.00">AppComponent </text>
</g>
<!-- AppModule&#45;&gt;AppComponent  -->
<g id="edge8" class="edge">
<title>AppModule&#45;&gt;AppComponent </title>
<path fill="none" stroke="black" stroke-dasharray="1,5" d="M553,-187.11C553,-187.11 553,-205.99 553,-205.99"/>
<polygon fill="black" stroke="black" points="549.5,-205.99 553,-215.99 556.5,-205.99 549.5,-205.99"/>
</g>
<!-- AppRoutingModule -->
<g id="node8" class="node">
<title>AppRoutingModule</title>
<polygon fill="#8dd3c7" stroke="black" points="1061.27,-122 1058.27,-126 1037.27,-126 1034.27,-122 932.73,-122 932.73,-86 1061.27,-86 1061.27,-122"/>
<text text-anchor="middle" x="997" y="-99.8" font-family="Times,serif" font-size="14.00">AppRoutingModule</text>
</g>
<!-- AppRoutingModule&#45;&gt;AppModule -->
<g id="edge7" class="edge">
<title>AppRoutingModule&#45;&gt;AppModule</title>
<path fill="none" stroke="black" d="M997,-122.29C997,-144.21 997,-178 997,-178 997,-178 604.77,-178 604.77,-178"/>
<polygon fill="black" stroke="black" points="604.77,-174.5 594.77,-178 604.77,-181.5 604.77,-174.5"/>
</g>
</g>
</svg>
